<svg width="460" height="411" viewBox="0 0 460 411" fill="none" xmlns="http://www.w3.org/2000/svg">
<path d="M54.24 283.064C55.904 283.896 56.864 285.208 57.12 287C57.44 288.792 56.992 290.424 55.776 291.896C54.944 293.048 53.856 293.688 52.512 293.816C51.232 293.944 49.92 293.688 48.576 293.048C47.04 292.344 45.408 291.8 43.68 291.416C42.016 291.032 40.256 290.84 38.4 290.84C34.944 290.84 31.84 291.384 29.088 292.472C26.4 293.56 24.096 295.128 22.176 297.176C20.256 299.16 18.784 301.528 17.76 304.28C16.8 307.032 16.32 310.072 16.32 313.4C16.32 317.304 16.864 320.696 17.952 323.576C19.104 326.456 20.672 328.856 22.656 330.776C24.64 332.696 26.976 334.136 29.664 335.096C32.352 335.992 35.264 336.44 38.4 336.44C40.128 336.44 41.856 336.28 43.584 335.96C45.312 335.64 46.976 335.064 48.576 334.232C49.92 333.592 51.232 333.368 52.512 333.56C53.856 333.752 54.976 334.424 55.872 335.576C57.152 337.176 57.6 338.84 57.216 340.568C56.896 342.232 55.936 343.448 54.336 344.216C52.672 345.048 50.944 345.752 49.152 346.328C47.424 346.84 45.664 347.224 43.872 347.48C42.08 347.8 40.256 347.96 38.4 347.96C33.792 347.96 29.408 347.224 25.248 345.752C21.152 344.28 17.472 342.104 14.208 339.224C11.008 336.344 8.48 332.76 6.624 328.472C4.768 324.12 3.84 319.096 3.84 313.4C3.84 308.472 4.672 303.928 6.336 299.768C8.064 295.608 10.464 292.024 13.536 289.016C16.672 285.944 20.352 283.576 24.576 281.912C28.8 280.184 33.408 279.32 38.4 279.32C41.216 279.32 43.968 279.64 46.656 280.28C49.344 280.92 51.872 281.848 54.24 283.064ZM72.1875 347C70.5235 347 69.1475 346.456 68.0595 345.368C66.9715 344.216 66.4275 342.808 66.4275 341.144V301.496C66.4275 299.832 66.9715 298.456 68.0595 297.368C69.1475 296.216 70.5235 295.64 72.1875 295.64C73.8515 295.64 75.2275 296.216 76.3155 297.368C77.4035 298.456 77.9475 299.832 77.9475 301.496V310.52L77.2755 304.088C77.9795 302.552 78.8755 301.208 79.9635 300.056C81.1155 298.84 82.3955 297.848 83.8035 297.08C85.2115 296.248 86.7155 295.64 88.3155 295.256C89.9155 294.872 91.5155 294.68 93.1155 294.68C95.0355 294.68 96.6355 295.224 97.9155 296.312C99.2595 297.4 99.9315 298.68 99.9315 300.152C99.9315 302.264 99.3875 303.8 98.2995 304.76C97.2115 305.656 96.0275 306.104 94.7475 306.104C93.5315 306.104 92.4115 305.88 91.3875 305.432C90.4275 304.984 89.3075 304.76 88.0275 304.76C86.8755 304.76 85.6915 305.048 84.4755 305.624C83.3235 306.136 82.2355 306.968 81.2115 308.12C80.2515 309.272 79.4515 310.712 78.8115 312.44C78.2355 314.104 77.9475 316.088 77.9475 318.392V341.144C77.9475 342.808 77.4035 344.216 76.3155 345.368C75.2275 346.456 73.8515 347 72.1875 347ZM155.72 321.368C155.72 326.616 154.536 331.256 152.168 335.288C149.864 339.256 146.728 342.36 142.76 344.6C138.856 346.84 134.472 347.96 129.608 347.96C124.744 347.96 120.328 346.84 116.36 344.6C112.456 342.36 109.32 339.256 106.952 335.288C104.648 331.256 103.496 326.616 103.496 321.368C103.496 316.12 104.648 311.512 106.952 307.544C109.32 303.512 112.456 300.376 116.36 298.136C120.328 295.832 124.744 294.68 129.608 294.68C134.472 294.68 138.856 295.832 142.76 298.136C146.728 300.376 149.864 303.512 152.168 307.544C154.536 311.512 155.72 316.12 155.72 321.368ZM144.2 321.368C144.2 318.104 143.528 315.288 142.184 312.92C140.904 310.488 139.144 308.6 136.904 307.256C134.728 305.912 132.296 305.24 129.608 305.24C126.92 305.24 124.456 305.912 122.216 307.256C120.04 308.6 118.28 310.488 116.936 312.92C115.656 315.288 115.016 318.104 115.016 321.368C115.016 324.568 115.656 327.384 116.936 329.816C118.28 332.184 120.04 334.04 122.216 335.384C124.456 336.728 126.92 337.4 129.608 337.4C132.296 337.4 134.728 336.728 136.904 335.384C139.144 334.04 140.904 332.184 142.184 329.816C143.528 327.384 144.2 324.568 144.2 321.368ZM162.827 339.032C162.187 338.136 161.899 336.984 161.963 335.576C162.027 334.168 162.859 332.952 164.459 331.928C165.483 331.288 166.571 331.032 167.723 331.16C168.875 331.224 169.995 331.8 171.083 332.888C172.939 334.744 174.891 336.184 176.939 337.208C178.987 338.232 181.547 338.744 184.619 338.744C185.579 338.68 186.635 338.552 187.786 338.36C188.939 338.104 189.931 337.592 190.763 336.824C191.659 335.992 192.107 334.744 192.107 333.08C192.107 331.672 191.627 330.552 190.667 329.72C189.707 328.888 188.427 328.184 186.827 327.608C185.291 327.032 183.563 326.488 181.643 325.976C179.659 325.4 177.611 324.76 175.499 324.056C173.451 323.352 171.563 322.456 169.835 321.368C168.107 320.216 166.699 318.712 165.611 316.856C164.523 315 163.979 312.664 163.979 309.848C163.979 306.648 164.875 303.928 166.667 301.688C168.459 299.448 170.763 297.72 173.579 296.504C176.459 295.288 179.467 294.68 182.603 294.68C184.587 294.68 186.667 294.936 188.843 295.448C191.019 295.896 193.099 296.664 195.083 297.752C197.067 298.776 198.731 300.152 200.075 301.88C200.779 302.84 201.195 303.992 201.323 305.336C201.451 306.68 200.843 307.896 199.499 308.984C198.539 309.752 197.419 310.104 196.139 310.04C194.859 309.912 193.803 309.464 192.971 308.696C191.883 307.288 190.411 306.168 188.555 305.336C186.763 304.504 184.683 304.088 182.315 304.088C181.355 304.088 180.299 304.216 179.147 304.472C178.059 304.664 177.099 305.144 176.267 305.912C175.435 306.616 175.019 307.768 175.019 309.368C175.019 310.84 175.499 312.024 176.459 312.92C177.419 313.752 178.699 314.456 180.299 315.032C181.963 315.544 183.723 316.056 185.579 316.568C187.499 317.08 189.451 317.688 191.435 318.392C193.419 319.096 195.243 320.024 196.907 321.176C198.571 322.328 199.915 323.832 200.939 325.688C201.963 327.48 202.475 329.784 202.475 332.6C202.475 335.864 201.515 338.648 199.595 340.952C197.675 343.256 195.275 345.016 192.395 346.232C189.515 347.384 186.571 347.96 183.562 347.96C179.787 347.96 176.011 347.32 172.234 346.04C168.459 344.696 165.323 342.36 162.827 339.032ZM209.139 339.032C208.499 338.136 208.211 336.984 208.275 335.576C208.339 334.168 209.171 332.952 210.771 331.928C211.795 331.288 212.883 331.032 214.035 331.16C215.187 331.224 216.307 331.8 217.395 332.888C219.251 334.744 221.203 336.184 223.251 337.208C225.299 338.232 227.859 338.744 230.931 338.744C231.891 338.68 232.947 338.552 234.099 338.36C235.251 338.104 236.243 337.592 237.075 336.824C237.971 335.992 238.419 334.744 238.419 333.08C238.419 331.672 237.939 330.552 236.979 329.72C236.019 328.888 234.739 328.184 233.139 327.608C231.603 327.032 229.875 326.488 227.955 325.976C225.971 325.4 223.923 324.76 221.811 324.056C219.763 323.352 217.875 322.456 216.147 321.368C214.419 320.216 213.011 318.712 211.923 316.856C210.835 315 210.291 312.664 210.291 309.848C210.291 306.648 211.187 303.928 212.979 301.688C214.771 299.448 217.075 297.72 219.891 296.504C222.771 295.288 225.779 294.68 228.915 294.68C230.899 294.68 232.979 294.936 235.155 295.448C237.331 295.896 239.411 296.664 241.395 297.752C243.379 298.776 245.043 300.152 246.387 301.88C247.091 302.84 247.507 303.992 247.635 305.336C247.763 306.68 247.155 307.896 245.811 308.984C244.851 309.752 243.731 310.104 242.451 310.04C241.171 309.912 240.115 309.464 239.283 308.696C238.195 307.288 236.723 306.168 234.867 305.336C233.075 304.504 230.995 304.088 228.627 304.088C227.667 304.088 226.611 304.216 225.459 304.472C224.371 304.664 223.411 305.144 222.579 305.912C221.747 306.616 221.331 307.768 221.331 309.368C221.331 310.84 221.811 312.024 222.771 312.92C223.731 313.752 225.011 314.456 226.611 315.032C228.275 315.544 230.035 316.056 231.891 316.568C233.811 317.08 235.763 317.688 237.747 318.392C239.731 319.096 241.555 320.024 243.219 321.176C244.883 322.328 246.227 323.832 247.251 325.688C248.275 327.48 248.787 329.784 248.787 332.6C248.787 335.864 247.827 338.648 245.907 340.952C243.987 343.256 241.587 345.016 238.707 346.232C235.827 347.384 232.883 347.96 229.875 347.96C226.099 347.96 222.323 347.32 218.547 346.04C214.771 344.696 211.635 342.36 209.139 339.032ZM260.732 295.64C261.948 295.64 263.068 295.96 264.092 296.6C265.116 297.176 265.884 298.072 266.396 299.288L280.508 331.544L278.396 332.504L292.796 299.384C293.884 296.824 295.58 295.608 297.884 295.736C299.484 295.736 300.764 296.248 301.724 297.272C302.748 298.232 303.26 299.448 303.26 300.92C303.26 301.368 303.164 301.848 302.972 302.36C302.844 302.872 302.684 303.352 302.492 303.8L284.54 343.352C283.516 345.656 281.884 346.872 279.644 347C278.428 347.192 277.244 346.968 276.092 346.328C275.004 345.688 274.172 344.696 273.596 343.352L255.74 303.8C255.612 303.48 255.452 303.064 255.26 302.552C255.132 302.04 255.068 301.432 255.068 300.728C255.068 299.576 255.58 298.456 256.604 297.368C257.628 296.216 259.004 295.64 260.732 295.64ZM323.182 341.144C323.182 342.808 322.638 344.216 321.55 345.368C320.462 346.456 319.086 347 317.422 347C315.758 347 314.382 346.456 313.294 345.368C312.206 344.216 311.662 342.808 311.662 341.144V301.496C311.662 299.832 312.206 298.456 313.294 297.368C314.382 296.216 315.758 295.64 317.422 295.64C319.086 295.64 320.462 296.216 321.55 297.368C322.638 298.456 323.182 299.832 323.182 301.496V341.144ZM317.326 289.4C315.15 289.4 313.614 289.048 312.718 288.344C311.822 287.64 311.374 286.392 311.374 284.6V282.776C311.374 280.92 311.854 279.672 312.814 279.032C313.838 278.328 315.374 277.976 317.422 277.976C319.662 277.976 321.23 278.328 322.126 279.032C323.022 279.736 323.47 280.984 323.47 282.776V284.6C323.47 286.456 322.99 287.736 322.03 288.44C321.07 289.08 319.502 289.4 317.326 289.4ZM359.213 347.96C353.773 347.96 349.037 346.84 345.005 344.6C341.037 342.296 337.965 339.192 335.789 335.288C333.677 331.384 332.621 326.968 332.621 322.04C332.621 316.28 333.773 311.384 336.077 307.352C338.445 303.256 341.517 300.12 345.293 297.944C349.069 295.768 353.069 294.68 357.293 294.68C360.557 294.68 363.629 295.352 366.509 296.696C369.453 298.04 372.045 299.896 374.285 302.264C376.525 304.568 378.285 307.256 379.565 310.328C380.909 313.4 381.581 316.664 381.581 320.12C381.517 321.656 380.909 322.904 379.757 323.864C378.605 324.824 377.261 325.304 375.725 325.304H339.053L336.173 315.704H371.405L369.293 317.624V315.032C369.165 313.176 368.493 311.512 367.277 310.04C366.125 308.568 364.653 307.416 362.861 306.584C361.133 305.688 359.277 305.24 357.293 305.24C355.373 305.24 353.581 305.496 351.917 306.008C350.253 306.52 348.813 307.384 347.597 308.6C346.381 309.816 345.421 311.448 344.717 313.496C344.013 315.544 343.661 318.136 343.661 321.272C343.661 324.728 344.365 327.672 345.773 330.104C347.245 332.472 349.101 334.296 351.341 335.576C353.645 336.792 356.077 337.4 358.637 337.4C361.005 337.4 362.893 337.208 364.301 336.824C365.709 336.44 366.829 335.992 367.661 335.48C368.557 334.904 369.357 334.424 370.061 334.04C371.213 333.464 372.301 333.176 373.325 333.176C374.733 333.176 375.885 333.656 376.781 334.616C377.741 335.576 378.221 336.696 378.221 337.976C378.221 339.704 377.325 341.272 375.533 342.68C373.869 344.088 371.533 345.336 368.525 346.424C365.517 347.448 362.413 347.96 359.213 347.96ZM450.782 295.64C452.254 295.64 453.534 296.216 454.622 297.368C455.71 298.456 456.254 299.864 456.254 301.592C456.254 302.04 456.222 302.456 456.158 302.84C456.094 303.16 455.998 303.48 455.87 303.8L441.182 343.352C440.734 344.632 439.934 345.624 438.782 346.328C437.63 346.968 436.414 347.192 435.134 347C432.958 346.872 431.326 345.656 430.238 343.352L420.734 315.992L423.23 316.088L414.302 343.352C413.214 345.656 411.582 346.872 409.406 347C408.19 347.192 406.974 346.968 405.758 346.328C404.606 345.624 403.806 344.632 403.358 343.352L388.67 303.8C388.414 303.096 388.286 302.36 388.286 301.592C388.286 300.056 388.798 298.68 389.822 297.464C390.846 296.248 392.254 295.64 394.046 295.64C395.262 295.64 396.35 295.928 397.31 296.504C398.27 297.08 398.942 298.008 399.326 299.288L410.942 330.776L408.542 330.584L417.278 306.872C418.302 304.504 420.062 303.32 422.558 303.32C423.966 303.32 425.022 303.64 425.726 304.28C426.494 304.856 427.102 305.72 427.55 306.872L436.286 330.584L433.406 330.968L445.214 299.288C445.982 296.856 447.838 295.64 450.782 295.64Z" fill="black"/>
<path d="M64.944 382.072C65.3067 382.264 65.5093 382.552 65.552 382.936C65.616 383.32 65.52 383.672 65.264 383.992C65.072 384.269 64.8267 384.419 64.528 384.44C64.2293 384.461 63.9307 384.397 63.632 384.248C62.928 383.821 62.1707 383.491 61.36 383.256C60.5493 383 59.696 382.872 58.8 382.872C57.5413 382.872 56.3893 383.096 55.344 383.544C54.2987 383.971 53.392 384.579 52.624 385.368C51.856 386.157 51.2587 387.096 50.832 388.184C50.4053 389.272 50.192 390.477 50.192 391.8C50.192 393.208 50.416 394.467 50.864 395.576C51.312 396.685 51.92 397.635 52.688 398.424C53.4773 399.192 54.384 399.779 55.408 400.184C56.4533 400.589 57.584 400.792 58.8 400.792C59.6747 400.792 60.5173 400.675 61.328 400.44C62.1387 400.205 62.9067 399.864 63.632 399.416C63.9307 399.267 64.2293 399.213 64.528 399.256C64.8267 399.299 65.0827 399.448 65.296 399.704C65.552 400.045 65.648 400.408 65.584 400.792C65.52 401.155 65.3173 401.421 64.976 401.592C64.4427 401.912 63.8347 402.211 63.152 402.488C62.4693 402.744 61.7547 402.947 61.008 403.096C60.2827 403.245 59.5467 403.32 58.8 403.32C57.264 403.32 55.8133 403.053 54.448 402.52C53.0827 401.987 51.8773 401.219 50.832 400.216C49.7867 399.213 48.9547 398.008 48.336 396.6C47.7387 395.171 47.44 393.571 47.44 391.8C47.44 390.136 47.728 388.611 48.304 387.224C48.88 385.837 49.68 384.632 50.704 383.608C51.7493 382.584 52.9547 381.784 54.32 381.208C55.7067 380.632 57.2 380.344 58.8 380.344C59.9093 380.344 60.9867 380.493 62.032 380.792C63.0987 381.091 64.0693 381.517 64.944 382.072ZM70.913 403C70.5077 403 70.1557 402.872 69.857 402.616C69.5797 402.36 69.441 402.051 69.441 401.688V381.88C69.441 381.517 69.5583 381.219 69.793 380.984C70.049 380.728 70.3583 380.6 70.721 380.6H79.553C80.7477 380.6 81.825 380.877 82.785 381.432C83.745 381.965 84.5023 382.712 85.057 383.672C85.633 384.611 85.921 385.699 85.921 386.936C85.921 387.832 85.7503 388.675 85.409 389.464C85.0677 390.232 84.5983 390.904 84.001 391.48C83.4037 392.035 82.721 392.461 81.953 392.76L81.249 392.248C81.9743 392.419 82.625 392.728 83.201 393.176C83.777 393.603 84.2463 394.157 84.609 394.84C84.9717 395.501 85.1637 396.28 85.185 397.176C85.2277 397.965 85.281 398.595 85.345 399.064C85.409 399.533 85.505 399.907 85.633 400.184C85.761 400.44 85.9423 400.643 86.177 400.792C86.4757 400.984 86.6677 401.24 86.753 401.56C86.8597 401.88 86.8063 402.189 86.593 402.488C86.465 402.68 86.2837 402.819 86.049 402.904C85.8143 402.968 85.5797 402.989 85.345 402.968C85.1103 402.947 84.9077 402.883 84.737 402.776C84.3957 402.584 84.065 402.307 83.745 401.944C83.425 401.56 83.1583 401.016 82.945 400.312C82.7317 399.608 82.625 398.648 82.625 397.432C82.625 396.749 82.5183 396.184 82.305 395.736C82.0917 395.288 81.8037 394.925 81.441 394.648C81.0783 394.371 80.673 394.179 80.225 394.072C79.777 393.965 79.3183 393.912 78.849 393.912H71.713L72.097 393.336V401.688C72.097 402.051 71.9903 402.36 71.777 402.616C71.5637 402.872 71.2757 403 70.913 403ZM71.713 391.608H79.553C80.1717 391.565 80.7477 391.352 81.281 390.968C81.8357 390.584 82.2837 390.051 82.625 389.368C82.9877 388.664 83.169 387.875 83.169 387C83.169 385.869 82.8063 384.931 82.081 384.184C81.377 383.437 80.481 383.064 79.393 383.064H71.841L72.097 382.456V392.184L71.713 391.608ZM110.946 391.8C110.946 393.443 110.679 394.968 110.146 396.376C109.612 397.763 108.866 398.979 107.906 400.024C106.946 401.069 105.804 401.88 104.482 402.456C103.159 403.032 101.719 403.32 100.162 403.32C98.5828 403.32 97.1322 403.032 95.8095 402.456C94.5082 401.88 93.3775 401.069 92.4175 400.024C91.4575 398.979 90.7108 397.763 90.1775 396.376C89.6442 394.968 89.3775 393.443 89.3775 391.8C89.3775 390.136 89.6442 388.611 90.1775 387.224C90.7108 385.816 91.4575 384.6 92.4175 383.576C93.3775 382.531 94.5082 381.72 95.8095 381.144C97.1322 380.568 98.5828 380.28 100.162 380.28C101.719 380.28 103.159 380.568 104.482 381.144C105.804 381.72 106.946 382.531 107.906 383.576C108.866 384.6 109.612 385.816 110.146 387.224C110.679 388.611 110.946 390.136 110.946 391.8ZM108.194 391.8C108.194 390.051 107.842 388.504 107.138 387.16C106.455 385.816 105.516 384.76 104.322 383.992C103.127 383.224 101.74 382.84 100.162 382.84C98.5828 382.84 97.1855 383.224 95.9695 383.992C94.7748 384.76 93.8362 385.816 93.1535 387.16C92.4708 388.504 92.1295 390.051 92.1295 391.8C92.1295 393.528 92.4708 395.075 93.1535 396.44C93.8362 397.784 94.7748 398.84 95.9695 399.608C97.1855 400.376 98.5828 400.76 100.162 400.76C101.74 400.76 103.127 400.376 104.322 399.608C105.516 398.84 106.455 397.784 107.138 396.44C107.842 395.075 108.194 393.528 108.194 391.8ZM121.719 403.32C120.14 403.32 118.754 403.085 117.559 402.616C116.364 402.147 115.212 401.4 114.103 400.376C113.954 400.227 113.826 400.067 113.719 399.896C113.634 399.704 113.591 399.501 113.591 399.288C113.591 398.947 113.708 398.648 113.943 398.392C114.199 398.115 114.508 397.976 114.871 397.976C115.17 397.976 115.436 398.093 115.671 398.328C116.503 399.139 117.399 399.757 118.359 400.184C119.34 400.611 120.439 400.824 121.655 400.824C122.594 400.824 123.436 400.675 124.183 400.376C124.951 400.077 125.559 399.661 126.007 399.128C126.455 398.595 126.679 397.976 126.679 397.272C126.658 396.419 126.402 395.715 125.911 395.16C125.442 394.605 124.78 394.147 123.927 393.784C123.095 393.4 122.124 393.08 121.015 392.824C120.034 392.589 119.127 392.301 118.295 391.96C117.484 391.619 116.78 391.203 116.183 390.712C115.586 390.2 115.116 389.592 114.775 388.888C114.455 388.163 114.295 387.32 114.295 386.36C114.295 385.144 114.615 384.077 115.255 383.16C115.895 382.243 116.78 381.539 117.911 381.048C119.042 380.536 120.343 380.28 121.815 380.28C123.116 380.28 124.343 380.493 125.495 380.92C126.668 381.347 127.607 381.933 128.311 382.68C128.738 383.085 128.951 383.48 128.951 383.864C128.951 384.184 128.812 384.483 128.535 384.76C128.279 385.016 127.98 385.144 127.639 385.144C127.404 385.144 127.191 385.059 126.999 384.888C126.636 384.483 126.178 384.12 125.623 383.8C125.068 383.48 124.46 383.224 123.799 383.032C123.138 382.84 122.476 382.744 121.815 382.744C120.834 382.744 119.97 382.893 119.223 383.192C118.476 383.469 117.89 383.875 117.463 384.408C117.058 384.92 116.855 385.539 116.855 386.264C116.855 387.075 117.09 387.747 117.559 388.28C118.028 388.792 118.658 389.219 119.447 389.56C120.236 389.88 121.111 390.168 122.071 390.424C123.116 390.68 124.076 390.979 124.951 391.32C125.847 391.64 126.615 392.045 127.255 392.536C127.895 393.027 128.386 393.656 128.727 394.424C129.09 395.171 129.271 396.099 129.271 397.208C129.271 398.381 128.94 399.427 128.279 400.344C127.618 401.261 126.711 401.987 125.559 402.52C124.428 403.032 123.148 403.299 121.719 403.32ZM140.094 403.32C138.515 403.32 137.129 403.085 135.934 402.616C134.739 402.147 133.587 401.4 132.478 400.376C132.329 400.227 132.201 400.067 132.094 399.896C132.009 399.704 131.966 399.501 131.966 399.288C131.966 398.947 132.083 398.648 132.318 398.392C132.574 398.115 132.883 397.976 133.246 397.976C133.545 397.976 133.811 398.093 134.046 398.328C134.878 399.139 135.774 399.757 136.734 400.184C137.715 400.611 138.814 400.824 140.03 400.824C140.969 400.824 141.811 400.675 142.558 400.376C143.326 400.077 143.934 399.661 144.382 399.128C144.83 398.595 145.054 397.976 145.054 397.272C145.033 396.419 144.777 395.715 144.286 395.16C143.817 394.605 143.155 394.147 142.302 393.784C141.47 393.4 140.499 393.08 139.39 392.824C138.409 392.589 137.502 392.301 136.67 391.96C135.859 391.619 135.155 391.203 134.558 390.712C133.961 390.2 133.491 389.592 133.15 388.888C132.83 388.163 132.67 387.32 132.67 386.36C132.67 385.144 132.99 384.077 133.63 383.16C134.27 382.243 135.155 381.539 136.286 381.048C137.417 380.536 138.718 380.28 140.19 380.28C141.491 380.28 142.718 380.493 143.87 380.92C145.043 381.347 145.982 381.933 146.686 382.68C147.113 383.085 147.326 383.48 147.326 383.864C147.326 384.184 147.187 384.483 146.91 384.76C146.654 385.016 146.355 385.144 146.014 385.144C145.779 385.144 145.566 385.059 145.374 384.888C145.011 384.483 144.553 384.12 143.998 383.8C143.443 383.48 142.835 383.224 142.174 383.032C141.513 382.84 140.851 382.744 140.19 382.744C139.209 382.744 138.345 382.893 137.598 383.192C136.851 383.469 136.265 383.875 135.838 384.408C135.433 384.92 135.23 385.539 135.23 386.264C135.23 387.075 135.465 387.747 135.934 388.28C136.403 388.792 137.033 389.219 137.822 389.56C138.611 389.88 139.486 390.168 140.446 390.424C141.491 390.68 142.451 390.979 143.326 391.32C144.222 391.64 144.99 392.045 145.63 392.536C146.27 393.027 146.761 393.656 147.102 394.424C147.465 395.171 147.646 396.099 147.646 397.208C147.646 398.381 147.315 399.427 146.654 400.344C145.993 401.261 145.086 401.987 143.934 402.52C142.803 403.032 141.523 403.299 140.094 403.32ZM160.709 380.6C161.882 380.6 162.938 380.888 163.877 381.464C164.816 382.04 165.552 382.829 166.085 383.832C166.64 384.835 166.917 385.976 166.917 387.256C166.917 388.515 166.64 389.656 166.085 390.68C165.552 391.704 164.816 392.515 163.877 393.112C162.938 393.709 161.882 394.008 160.709 394.008H154.213L154.437 393.624V401.688C154.437 402.051 154.32 402.36 154.085 402.616C153.85 402.872 153.552 403 153.189 403C152.805 403 152.496 402.872 152.261 402.616C152.048 402.36 151.941 402.051 151.941 401.688V381.88C151.941 381.517 152.058 381.219 152.293 380.984C152.549 380.728 152.858 380.6 153.221 380.6H160.709ZM160.709 391.544C161.413 391.544 162.032 391.352 162.565 390.968C163.098 390.584 163.525 390.061 163.845 389.4C164.165 388.739 164.325 388.024 164.325 387.256C164.325 386.445 164.165 385.731 163.845 385.112C163.525 384.493 163.098 384.003 162.565 383.64C162.032 383.256 161.413 383.064 160.709 383.064H154.213L154.437 382.712V391.864L154.213 391.544H160.709ZM183.449 400.472C183.812 400.472 184.121 400.6 184.377 400.856C184.633 401.091 184.761 401.389 184.761 401.752C184.761 402.115 184.633 402.413 184.377 402.648C184.121 402.883 183.812 403 183.449 403H172.377C172.015 403 171.705 402.872 171.449 402.616C171.215 402.36 171.097 402.051 171.097 401.688V381.88C171.097 381.517 171.225 381.219 171.481 380.984C171.737 380.728 172.057 380.6 172.441 380.6C172.804 380.6 173.113 380.728 173.369 380.984C173.625 381.219 173.753 381.517 173.753 381.88V401.048L173.113 400.472H183.449ZM196.185 383.928L188.665 402.232C188.58 402.488 188.43 402.691 188.217 402.84C188.004 402.989 187.78 403.064 187.545 403.064C187.14 403.064 186.841 402.957 186.649 402.744C186.457 402.531 186.361 402.275 186.361 401.976C186.34 401.827 186.361 401.667 186.425 401.496L194.713 381.336C194.82 381.037 194.98 380.824 195.193 380.696C195.428 380.547 195.684 380.483 195.961 380.504C196.238 380.504 196.484 380.579 196.697 380.728C196.932 380.877 197.092 381.08 197.177 381.336L205.433 401.304C205.497 401.475 205.529 401.645 205.529 401.816C205.529 402.2 205.401 402.509 205.145 402.744C204.889 402.957 204.601 403.064 204.281 403.064C204.025 403.064 203.79 402.989 203.577 402.84C203.364 402.691 203.204 402.477 203.097 402.2L195.481 383.896L196.185 383.928ZM190.265 397.016L191.353 394.52H200.857L201.337 397.016H190.265ZM225.611 380.6C225.973 380.6 226.261 380.717 226.475 380.952C226.688 381.165 226.795 381.443 226.795 381.784V401.656C226.795 402.061 226.667 402.392 226.411 402.648C226.155 402.883 225.845 403 225.483 403C225.291 403 225.099 402.968 224.907 402.904C224.715 402.819 224.565 402.712 224.459 402.584L210.763 384.472L211.403 384.088V401.816C211.403 402.157 211.285 402.445 211.051 402.68C210.837 402.893 210.549 403 210.187 403C209.845 403 209.568 402.893 209.355 402.68C209.141 402.445 209.035 402.157 209.035 401.816V381.88C209.035 381.496 209.152 381.187 209.387 380.952C209.643 380.717 209.941 380.6 210.283 380.6C210.475 380.6 210.667 380.643 210.859 380.728C211.072 380.792 211.232 380.899 211.339 381.048L224.843 398.904L224.427 399.416V381.784C224.427 381.443 224.533 381.165 224.747 380.952C224.981 380.717 225.269 380.6 225.611 380.6ZM233.69 380.6H245.082C245.444 380.6 245.754 380.717 246.01 380.952C246.266 381.187 246.394 381.485 246.394 381.848C246.394 382.211 246.266 382.509 246.01 382.744C245.754 382.957 245.444 383.064 245.082 383.064H234.778L235.066 382.52V390.616L234.746 390.264H243.642C244.004 390.264 244.314 390.381 244.57 390.616C244.826 390.851 244.954 391.149 244.954 391.512C244.954 391.875 244.826 392.173 244.57 392.408C244.314 392.621 244.004 392.728 243.642 392.728H234.842L235.066 392.44V400.728L234.874 400.504H245.082C245.444 400.504 245.754 400.632 246.01 400.888C246.266 401.144 246.394 401.432 246.394 401.752C246.394 402.115 246.266 402.413 246.01 402.648C245.754 402.883 245.444 403 245.082 403H233.69C233.327 403 233.018 402.872 232.762 402.616C232.527 402.36 232.41 402.051 232.41 401.688V381.88C232.41 381.517 232.527 381.219 232.762 380.984C233.018 380.728 233.327 380.6 233.69 380.6ZM268.752 380.6C270.31 380.6 271.675 380.899 272.848 381.496C274.043 382.072 275.035 382.883 275.824 383.928C276.614 384.973 277.2 386.179 277.584 387.544C277.99 388.888 278.192 390.307 278.192 391.8C278.192 393.848 277.84 395.725 277.136 397.432C276.432 399.117 275.387 400.472 274 401.496C272.614 402.499 270.864 403 268.752 403H260.752C260.39 403 260.08 402.872 259.824 402.616C259.59 402.36 259.472 402.051 259.472 401.688V381.88C259.472 381.517 259.59 381.219 259.824 380.984C260.08 380.728 260.39 380.6 260.752 380.6H268.752ZM268.432 400.504C270.075 400.504 271.408 400.109 272.432 399.32C273.478 398.531 274.235 397.475 274.704 396.152C275.195 394.829 275.44 393.379 275.44 391.8C275.44 390.648 275.302 389.549 275.024 388.504C274.768 387.437 274.352 386.499 273.776 385.688C273.222 384.877 272.496 384.237 271.6 383.768C270.726 383.299 269.67 383.064 268.432 383.064H261.872L262.128 382.808V400.824L261.936 400.504H268.432ZM290.029 383.928L282.509 402.232C282.423 402.488 282.274 402.691 282.061 402.84C281.847 402.989 281.623 403.064 281.389 403.064C280.983 403.064 280.685 402.957 280.493 402.744C280.301 402.531 280.205 402.275 280.205 401.976C280.183 401.827 280.205 401.667 280.269 401.496L288.557 381.336C288.663 381.037 288.823 380.824 289.037 380.696C289.271 380.547 289.527 380.483 289.805 380.504C290.082 380.504 290.327 380.579 290.541 380.728C290.775 380.877 290.935 381.08 291.021 381.336L299.277 401.304C299.341 401.475 299.373 401.645 299.373 401.816C299.373 402.2 299.245 402.509 298.989 402.744C298.733 402.957 298.445 403.064 298.125 403.064C297.869 403.064 297.634 402.989 297.421 402.84C297.207 402.691 297.047 402.477 296.941 402.2L289.325 383.896L290.029 383.928ZM284.109 397.016L285.197 394.52H294.701L295.181 397.016H284.109ZM309.407 403.32C307.828 403.32 306.441 403.085 305.247 402.616C304.052 402.147 302.9 401.4 301.791 400.376C301.641 400.227 301.513 400.067 301.407 399.896C301.321 399.704 301.279 399.501 301.279 399.288C301.279 398.947 301.396 398.648 301.631 398.392C301.887 398.115 302.196 397.976 302.559 397.976C302.857 397.976 303.124 398.093 303.359 398.328C304.191 399.139 305.087 399.757 306.047 400.184C307.028 400.611 308.127 400.824 309.343 400.824C310.281 400.824 311.124 400.675 311.871 400.376C312.639 400.077 313.247 399.661 313.695 399.128C314.143 398.595 314.367 397.976 314.367 397.272C314.345 396.419 314.089 395.715 313.599 395.16C313.129 394.605 312.468 394.147 311.615 393.784C310.783 393.4 309.812 393.08 308.703 392.824C307.721 392.589 306.815 392.301 305.983 391.96C305.172 391.619 304.468 391.203 303.871 390.712C303.273 390.2 302.804 389.592 302.463 388.888C302.143 388.163 301.983 387.32 301.983 386.36C301.983 385.144 302.303 384.077 302.943 383.16C303.583 382.243 304.468 381.539 305.599 381.048C306.729 380.536 308.031 380.28 309.503 380.28C310.804 380.28 312.031 380.493 313.183 380.92C314.356 381.347 315.295 381.933 315.999 382.68C316.425 383.085 316.639 383.48 316.639 383.864C316.639 384.184 316.5 384.483 316.222 384.76C315.967 385.016 315.668 385.144 315.327 385.144C315.092 385.144 314.879 385.059 314.687 384.888C314.324 384.483 313.865 384.12 313.311 383.8C312.756 383.48 312.148 383.224 311.487 383.032C310.825 382.84 310.164 382.744 309.503 382.744C308.521 382.744 307.657 382.893 306.911 383.192C306.164 383.469 305.577 383.875 305.151 384.408C304.745 384.92 304.543 385.539 304.543 386.264C304.543 387.075 304.777 387.747 305.247 388.28C305.716 388.792 306.345 389.219 307.135 389.56C307.924 389.88 308.799 390.168 309.759 390.424C310.804 390.68 311.764 390.979 312.639 391.32C313.535 391.64 314.303 392.045 314.943 392.536C315.583 393.027 316.073 393.656 316.415 394.424C316.777 395.171 316.958 396.099 316.958 397.208C316.958 398.381 316.628 399.427 315.967 400.344C315.305 401.261 314.399 401.987 313.247 402.52C312.116 403.032 310.836 403.299 309.407 403.32ZM322.598 380.6C322.96 380.6 323.27 380.728 323.526 380.984C323.782 381.219 323.91 381.528 323.91 381.912V401.688C323.91 402.051 323.771 402.36 323.494 402.616C323.238 402.872 322.928 403 322.566 403C322.16 403 321.84 402.872 321.606 402.616C321.371 402.36 321.254 402.051 321.254 401.688V381.912C321.254 381.528 321.382 381.219 321.638 380.984C321.894 380.728 322.214 380.6 322.598 380.6ZM337.35 380.6C337.734 380.6 338.043 380.728 338.278 380.984C338.534 381.219 338.662 381.528 338.662 381.912V401.688C338.662 402.051 338.534 402.36 338.278 402.616C338.022 402.872 337.702 403 337.318 403C336.955 403 336.646 402.872 336.39 402.616C336.134 402.36 336.006 402.051 336.006 401.688V381.912C336.006 381.528 336.134 381.219 336.39 380.984C336.667 380.728 336.987 380.6 337.35 380.6ZM322.47 390.36H337.382L337.35 392.856H322.374L322.47 390.36ZM353.917 380.6C355.794 380.6 357.234 381.091 358.237 382.072C359.261 383.032 359.773 384.397 359.773 386.168C359.773 387.107 359.559 387.971 359.133 388.76C358.706 389.549 358.077 390.179 357.245 390.648C356.434 391.117 355.431 391.373 354.237 391.416L354.173 390.52C354.919 390.52 355.687 390.627 356.477 390.84C357.266 391.053 357.991 391.395 358.653 391.864C359.335 392.333 359.879 392.952 360.285 393.72C360.711 394.488 360.925 395.437 360.925 396.568C360.925 397.784 360.722 398.808 360.317 399.64C359.911 400.451 359.367 401.112 358.685 401.624C358.023 402.115 357.277 402.467 356.445 402.68C355.634 402.893 354.813 403 353.981 403H345.565C345.202 403 344.893 402.872 344.637 402.616C344.402 402.36 344.285 402.051 344.285 401.688V381.88C344.285 381.517 344.402 381.219 344.637 380.984C344.893 380.728 345.202 380.6 345.565 380.6H353.917ZM353.533 383.128H346.653L347.037 382.552V390.52L346.685 390.104H353.597C354.535 390.104 355.335 389.805 355.997 389.208C356.679 388.589 357.021 387.683 357.021 386.488C357.021 385.421 356.711 384.6 356.093 384.024C355.474 383.427 354.621 383.128 353.533 383.128ZM353.789 392.664H346.813L347.037 392.44V400.792L346.781 400.504H353.885C355.143 400.504 356.167 400.184 356.957 399.544C357.767 398.904 358.173 397.912 358.173 396.568C358.173 395.523 357.959 394.723 357.533 394.168C357.106 393.592 356.551 393.197 355.869 392.984C355.207 392.771 354.514 392.664 353.789 392.664ZM385.383 391.8C385.383 393.443 385.116 394.968 384.583 396.376C384.05 397.763 383.303 398.979 382.343 400.024C381.383 401.069 380.242 401.88 378.919 402.456C377.596 403.032 376.156 403.32 374.599 403.32C373.02 403.32 371.57 403.032 370.247 402.456C368.946 401.88 367.815 401.069 366.855 400.024C365.895 398.979 365.148 397.763 364.615 396.376C364.082 394.968 363.815 393.443 363.815 391.8C363.815 390.136 364.082 388.611 364.615 387.224C365.148 385.816 365.895 384.6 366.855 383.576C367.815 382.531 368.946 381.72 370.247 381.144C371.57 380.568 373.02 380.28 374.599 380.28C376.156 380.28 377.596 380.568 378.919 381.144C380.242 381.72 381.383 382.531 382.343 383.576C383.303 384.6 384.05 385.816 384.583 387.224C385.116 388.611 385.383 390.136 385.383 391.8ZM382.631 391.8C382.631 390.051 382.279 388.504 381.575 387.16C380.892 385.816 379.954 384.76 378.759 383.992C377.564 383.224 376.178 382.84 374.599 382.84C373.02 382.84 371.623 383.224 370.407 383.992C369.212 384.76 368.274 385.816 367.591 387.16C366.908 388.504 366.567 390.051 366.567 391.8C366.567 393.528 366.908 395.075 367.591 396.44C368.274 397.784 369.212 398.84 370.407 399.608C371.623 400.376 373.02 400.76 374.599 400.76C376.178 400.76 377.564 400.376 378.759 399.608C379.954 398.84 380.892 397.784 381.575 396.44C382.279 395.075 382.631 393.528 382.631 391.8ZM397.216 383.928L389.696 402.232C389.611 402.488 389.462 402.691 389.248 402.84C389.035 402.989 388.811 403.064 388.576 403.064C388.171 403.064 387.872 402.957 387.68 402.744C387.488 402.531 387.392 402.275 387.392 401.976C387.371 401.827 387.392 401.667 387.456 401.496L395.744 381.336C395.851 381.037 396.011 380.824 396.224 380.696C396.459 380.547 396.715 380.483 396.992 380.504C397.27 380.504 397.515 380.579 397.728 380.728C397.963 380.877 398.123 381.08 398.208 381.336L406.464 401.304C406.528 401.475 406.56 401.645 406.56 401.816C406.56 402.2 406.432 402.509 406.176 402.744C405.92 402.957 405.632 403.064 405.312 403.064C405.056 403.064 404.822 402.989 404.608 402.84C404.395 402.691 404.235 402.477 404.128 402.2L396.512 383.896L397.216 383.928ZM391.296 397.016L392.384 394.52H401.888L402.368 397.016H391.296ZM411.538 403C411.133 403 410.781 402.872 410.482 402.616C410.205 402.36 410.066 402.051 410.066 401.688V381.88C410.066 381.517 410.183 381.219 410.418 380.984C410.674 380.728 410.983 380.6 411.346 380.6H420.178C421.373 380.6 422.45 380.877 423.41 381.432C424.37 381.965 425.127 382.712 425.682 383.672C426.258 384.611 426.546 385.699 426.546 386.936C426.546 387.832 426.375 388.675 426.034 389.464C425.693 390.232 425.223 390.904 424.626 391.48C424.029 392.035 423.346 392.461 422.578 392.76L421.874 392.248C422.599 392.419 423.25 392.728 423.826 393.176C424.402 393.603 424.871 394.157 425.234 394.84C425.597 395.501 425.789 396.28 425.81 397.176C425.853 397.965 425.906 398.595 425.97 399.064C426.034 399.533 426.13 399.907 426.258 400.184C426.386 400.44 426.567 400.643 426.802 400.792C427.101 400.984 427.293 401.24 427.378 401.56C427.485 401.88 427.431 402.189 427.218 402.488C427.09 402.68 426.909 402.819 426.674 402.904C426.439 402.968 426.205 402.989 425.97 402.968C425.735 402.947 425.533 402.883 425.362 402.776C425.021 402.584 424.69 402.307 424.37 401.944C424.05 401.56 423.783 401.016 423.57 400.312C423.357 399.608 423.25 398.648 423.25 397.432C423.25 396.749 423.143 396.184 422.93 395.736C422.717 395.288 422.429 394.925 422.066 394.648C421.703 394.371 421.298 394.179 420.85 394.072C420.402 393.965 419.943 393.912 419.474 393.912H412.338L412.722 393.336V401.688C412.722 402.051 412.615 402.36 412.402 402.616C412.189 402.872 411.901 403 411.538 403ZM412.338 391.608H420.178C420.797 391.565 421.373 391.352 421.906 390.968C422.461 390.584 422.909 390.051 423.25 389.368C423.613 388.664 423.794 387.875 423.794 387C423.794 385.869 423.431 384.931 422.706 384.184C422.002 383.437 421.106 383.064 420.018 383.064H412.466L412.722 382.456V392.184L412.338 391.608ZM440.971 380.6C442.528 380.6 443.894 380.899 445.067 381.496C446.262 382.072 447.254 382.883 448.043 383.928C448.832 384.973 449.419 386.179 449.803 387.544C450.208 388.888 450.411 390.307 450.411 391.8C450.411 393.848 450.059 395.725 449.355 397.432C448.651 399.117 447.606 400.472 446.219 401.496C444.832 402.499 443.083 403 440.971 403H432.971C432.608 403 432.299 402.872 432.043 402.616C431.808 402.36 431.691 402.051 431.691 401.688V381.88C431.691 381.517 431.808 381.219 432.043 380.984C432.299 380.728 432.608 380.6 432.971 380.6H440.971ZM440.651 400.504C442.294 400.504 443.627 400.109 444.651 399.32C445.696 398.531 446.454 397.475 446.923 396.152C447.414 394.829 447.659 393.379 447.659 391.8C447.659 390.648 447.52 389.549 447.243 388.504C446.987 387.437 446.571 386.499 445.995 385.688C445.44 384.877 444.715 384.237 443.819 383.768C442.944 383.299 441.888 383.064 440.651 383.064H434.091L434.347 382.808V400.824L434.155 400.504H440.651Z" fill="black"/>
<path d="M272.719 0C284.383 6.53272e-05 293.599 2.53127 299.915 8.03027C306.297 13.5872 309.292 21.7945 309.292 32.165V150.825C309.292 153.912 309.001 156.56 308.315 158.65C307.631 160.735 306.43 162.609 304.383 163.5C302.351 164.385 300.15 164.009 298.128 163.129C296.091 162.242 293.882 160.698 291.521 158.644C287.639 155.263 283.839 155.181 281.028 157.278C277.967 159.563 275.219 165.024 275.219 174.558C275.219 174.654 275.213 174.751 275.202 174.847C274.584 180.15 273.37 184.217 271.74 187C270.162 189.695 267.777 191.794 264.772 191.508C261.866 191.23 259.824 188.832 258.601 186.088C257.323 183.223 256.59 179.307 256.59 174.558C256.59 167.798 253.093 163.394 248.867 161.959V234.599C248.867 243.544 244.291 250.796 238.646 250.796C233 250.796 228.424 243.544 228.424 234.599V179.48C225.052 184.481 220.658 188.065 215.699 188.604C209.213 189.307 203.427 184.726 199.234 175.601C196.945 170.617 195.338 167.141 194.053 164.837C193.41 163.685 192.913 162.947 192.523 162.499C192.464 162.43 192.41 162.373 192.363 162.326C192.121 162.517 191.77 162.848 191.285 163.405C190.006 164.874 188.487 167.045 186.114 170.145C183.796 173.171 181.484 175.468 179.164 176.479C177.938 177.012 176.574 177.244 175.192 176.883C173.812 176.522 172.735 175.655 171.923 174.594C170.383 172.582 169.46 169.449 168.881 165.665C168.286 161.781 168 156.821 168 150.825V32.165C168 21.7943 170.994 13.5872 177.377 8.03027C183.693 2.53127 192.909 0 204.573 0H272.719Z" fill="black"/>
</svg>
