<svg width="205" height="367" viewBox="0 0 205 367" fill="none" xmlns="http://www.w3.org/2000/svg">
<path d="M152.5 0C169.473 0 182.671 3.68679 191.642 11.4971C200.679 19.365 205 31.0385 205 46.0312V220.158C205 224.632 204.576 228.378 203.625 231.276C202.675 234.17 201.076 236.564 198.498 237.687C195.935 238.802 193.07 238.369 190.252 237.142C187.419 235.908 184.28 233.729 180.858 230.75C174.852 225.521 168.663 225.208 163.995 228.691C159.076 232.362 155 240.827 155 254.983C155 255.08 154.995 255.177 154.983 255.272C154.087 262.968 152.335 268.76 150.056 272.652C147.828 276.457 144.681 279.049 140.95 278.693C137.317 278.347 134.583 275.316 132.85 271.428C131.062 267.419 130 261.848 130 254.983C130 244.441 124.399 237.406 117.5 235.263V343.091C117.5 356.218 110.784 366.859 102.5 366.859C94.2157 366.859 87.5 356.218 87.5 343.091V260.055C82.5373 268.027 75.9703 273.645 68.7012 274.434C59.9383 275.384 51.8036 269.249 45.7285 256.026C42.3769 248.731 39.9974 243.58 38.083 240.149C37.1258 238.434 36.3498 237.271 35.7002 236.522C35.0346 235.756 34.6979 235.656 34.6699 235.649C34.665 235.648 34.6672 235.648 34.6719 235.648C34.676 235.648 34.6687 235.648 34.6465 235.653C34.5981 235.664 34.466 235.704 34.2363 235.848C33.7397 236.158 33.061 236.771 32.1201 237.852C30.2123 240.043 27.9201 243.311 24.4854 247.797C21.1056 252.211 17.8649 255.375 14.748 256.731C13.1234 257.439 11.3948 257.713 9.68066 257.266C7.96832 256.818 6.59265 255.734 5.51465 254.326C3.44375 251.621 2.12418 247.275 1.2793 241.758C0.419113 236.141 1.11682e-05 228.927 0 220.158V46.0312C8.51669e-05 31.0385 4.32133 19.365 13.3584 11.4971C22.3294 3.68679 35.5265 0 52.5 0H152.5Z" fill="#1B1B1B"/>
</svg>
