<svg width="558" height="558" viewBox="0 0 558 558" fill="none" xmlns="http://www.w3.org/2000/svg">
<rect width="558" height="558" rx="20" fill="white"/>
<path d="M343.664 43C365.433 43.0001 382.227 47.731 393.596 57.6289C405.031 67.5847 410.552 82.3902 410.552 101.559V325.791C410.552 331.517 410.008 336.254 408.817 339.884C407.628 343.508 405.668 346.372 402.61 347.703C399.568 349.028 396.104 348.542 392.566 347.002C389.014 345.455 385.035 342.702 380.654 338.888C372.73 331.989 364.383 331.467 358.036 336.203C351.439 341.127 346.164 352.306 346.164 370.637C346.164 370.733 346.158 370.831 346.146 370.927C344.998 380.783 342.761 388.133 339.896 393.027C337.081 397.834 333.246 400.873 328.858 400.454C324.568 400.045 321.21 396.442 319.016 391.521C316.767 386.478 315.408 379.412 315.408 370.637C315.408 356.683 307.91 347.269 298.592 344.488V484.099C298.592 501.003 289.944 514.706 279.275 514.706C268.607 514.706 259.959 501.003 259.959 484.099V375.79C253.558 386.495 245.017 393.955 235.674 394.969C224.854 396.143 214.597 388.605 206.821 371.681C202.51 362.297 199.433 355.632 196.95 351.184C195.709 348.96 194.682 347.412 193.797 346.394C192.896 345.356 192.34 345.099 192.094 345.04C191.954 345.007 191.66 344.966 190.987 345.386C190.256 345.843 189.325 346.697 188.101 348.104C185.625 350.947 182.634 355.207 178.24 360.945C173.901 366.612 169.821 370.558 165.985 372.229C164.001 373.092 161.943 373.407 159.929 372.881C157.917 372.355 156.272 371.075 154.954 369.354C152.403 366.023 150.723 360.58 149.639 353.497C148.539 346.314 148 337.065 148 325.791V101.559C148 82.3903 153.52 67.5847 164.955 57.6289C176.324 47.7309 193.118 43 214.888 43H343.664Z" fill="black"/>
</svg>
